<svg width="60.000000" height="60.000000" viewBox="0 0 60 60" fill="none" xmlns="http://www.w3.org/2000/svg" xmlns:xlink="http://www.w3.org/1999/xlink">
	<desc>
			Created with Pixso.
	</desc>
	<defs>
		<clipPath id="clip101_585">
			<rect id="apple 2 1" rx="0.000000" width="24.000000" height="24.000000" transform="translate(18.500000 18.500000)" fill="white" fill-opacity="0"/>
		</clipPath>
	</defs>
	<rect id="Rectangle 68" rx="20.000000" width="60.000000" height="60.000000" fill="#DCFAF8" fill-opacity="1.000000"/>
	<rect id="apple 2 1" rx="0.000000" width="24.000000" height="24.000000" transform="translate(18.500000 18.500000)" fill="#FFFFFF" fill-opacity="0"/>
	<g clip-path="url(#clip101_585)">
		<path id="Vector" d="M40.04 35.2C39.26 34.73 37.64 33.75 37.64 31.21C37.64 29.07 39.07 27.98 39.84 27.4L39.86 27.39C40.17 27.16 40.24 26.72 40.03 26.4C38.3 23.82 35.35 23.74 34.77 23.75L34.77 23.75C34.37 23.75 34 23.8 33.64 23.87C33.77 23.76 33.9 23.65 34.02 23.53C35.26 22.34 35.93 20.58 35.88 18.71C35.87 18.31 35.55 18 35.15 18C33.82 18 32.3 18.79 31.19 20.07C30.08 21.36 29.56 22.91 29.77 24.32C29.78 24.43 29.83 24.54 29.89 24.63C29.7 24.57 29.49 24.49 29.29 24.41C28.51 24.13 27.63 23.81 26.81 23.81C26.79 23.81 25.12 23.82 23.45 24.86C21.99 25.76 20.25 27.65 20.25 31.5C20.25 33.51 21.03 36.31 22.24 38.65C23.08 40.26 24.81 42.97 27.04 42.98L27.07 42.98C28.69 42.98 30.04 42.02 30.96 42.02C32.52 42.02 33.08 43 34.77 43C36.29 43 37.76 41.84 39.14 39.57C39.65 38.74 40.04 37.91 40.28 37.37C40.74 36.33 40.74 36.19 40.74 36.09C40.74 35.62 40.39 35.4 40.04 35.2ZM32.3 21.03C32.9 20.33 33.66 19.82 34.38 19.59C34.24 20.73 33.76 21.75 33.01 22.48C32.48 22.99 31.84 23.33 31.2 23.44C31.27 22.64 31.65 21.79 32.3 21.03ZM37.82 38.92C36.77 40.61 35.69 41.53 34.77 41.53C33.5 41.53 32.91 40.56 30.96 40.56C29.64 40.56 28.38 41.53 27.05 41.52C26.02 41.51 24.67 40.16 23.54 37.97C22.43 35.83 21.71 33.29 21.71 31.5C21.71 28.98 22.54 27.17 24.18 26.13C25.46 25.32 26.76 25.27 26.81 25.27C27.96 25.27 29.54 26.28 30.7 26.28C31.74 26.28 33.14 25.22 34.77 25.22L34.8 25.22C35.2 25.21 37.07 25.25 38.39 26.68C37.46 27.47 36.17 28.88 36.17 31.21C36.17 34.38 38.18 35.77 39.12 36.35C38.89 36.92 38.44 37.93 37.82 38.92Z" fill="#16DBCC" fill-opacity="1.000000" fill-rule="nonzero"/>
		<path id="Vector" d="M27.72 23.92C27.41 23.85 27.11 23.81 26.81 23.81C26.79 23.81 25.12 23.82 23.45 24.86C21.99 25.76 20.25 27.65 20.25 31.5C20.25 33.51 21.03 36.31 22.24 38.65C23.08 40.26 24.81 42.97 27.04 42.98L27.07 42.98C28.69 42.98 30.04 42.02 30.96 42.02C32.52 42.02 33.08 43 34.77 43C36.29 43 37.76 41.84 39.14 39.57C39.65 38.74 40.04 37.91 40.28 37.37C40.74 36.33 40.74 36.19 40.74 36.09C40.74 35.62 40.39 35.4 40.04 35.2C39.26 34.73 37.64 33.75 37.64 31.21C37.64 29.07 39.07 27.98 39.84 27.4L39.86 27.39C40.17 27.16 40.24 26.72 40.03 26.4C38.98 24.83 37.48 24.19 36.33 23.93C35.59 23.76 35 23.75 34.77 23.75L34.77 23.75C34.7 23.75 34.63 23.75 34.56 23.76C34.24 23.77 33.93 23.81 33.64 23.87C33.77 23.76 33.9 23.65 34.02 23.53C34.12 23.44 34.22 23.34 34.31 23.24C34.7 22.8 35.02 22.3 35.27 21.76C35.7 20.84 35.91 19.79 35.88 18.71C35.87 18.31 35.55 18 35.15 18C33.82 18 32.3 18.79 31.19 20.07C30.55 20.82 30.1 21.66 29.88 22.5C29.75 23.01 29.7 23.51 29.73 24.01C29.74 24.11 29.75 24.21 29.77 24.32C29.78 24.43 29.83 24.54 29.89 24.63C29.7 24.57 29.49 24.49 29.29 24.41C29.23 24.39 29.17 24.37 29.11 24.35C28.67 24.19 28.19 24.02 27.72 23.92ZM28.11 25.55C27.65 25.39 27.21 25.27 26.81 25.27C26.76 25.27 25.46 25.32 24.18 26.13C22.54 27.17 21.71 28.98 21.71 31.5C21.71 33.29 22.43 35.83 23.54 37.97C24.67 40.16 26.02 41.51 27.05 41.52C27.72 41.52 28.37 41.28 29.01 41.04C29.66 40.8 30.3 40.56 30.96 40.56C32.91 40.56 33.5 41.53 34.77 41.53C35.69 41.53 36.77 40.61 37.82 38.92C38.28 38.17 38.65 37.42 38.91 36.85C38.92 36.82 38.93 36.79 38.95 36.77C39.01 36.61 39.07 36.47 39.12 36.35C39.01 36.28 38.88 36.2 38.74 36.11C38.72 36.09 38.69 36.07 38.67 36.06C37.65 35.34 36.17 33.93 36.17 31.21C36.17 29.3 37.04 28.01 37.86 27.17C37.91 27.13 37.95 27.08 38 27.04C38.04 27 38.07 26.97 38.11 26.93C38.21 26.84 38.3 26.76 38.39 26.68C38.31 26.59 38.23 26.51 38.14 26.43C38.1 26.39 38.05 26.36 38.01 26.32C37.58 25.95 37.11 25.71 36.66 25.54C36.06 25.32 35.5 25.25 35.14 25.22C34.99 25.21 34.87 25.21 34.8 25.22L34.77 25.22C34.76 25.22 34.74 25.22 34.72 25.22C34.4 25.22 34.1 25.26 33.8 25.33C33.53 25.39 33.26 25.48 33 25.57C32.12 25.88 31.34 26.28 30.7 26.28C30.19 26.28 29.59 26.09 28.99 25.86C28.99 25.86 28.98 25.86 28.98 25.86C28.8 25.8 28.62 25.73 28.43 25.66C28.33 25.62 28.22 25.58 28.11 25.55ZM32.62 22.81C32.76 22.71 32.88 22.6 33.01 22.48C33.11 22.38 33.21 22.28 33.3 22.17C33.38 22.07 33.46 21.96 33.54 21.86C33.88 21.36 34.13 20.79 34.28 20.17C34.31 20.04 34.33 19.92 34.35 19.79C34.36 19.73 34.37 19.66 34.38 19.59C34.31 19.61 34.25 19.63 34.19 19.66C34.06 19.7 33.94 19.76 33.81 19.82C33.28 20.1 32.75 20.51 32.3 21.03C31.65 21.79 31.27 22.64 31.2 23.44C31.38 23.41 31.56 23.36 31.74 23.29C32.05 23.18 32.35 23.01 32.62 22.81Z" fill="#16DBCC" fill-opacity="1.000000" fill-rule="evenodd"/>
	</g>
</svg>
