<svg width="60.000000" height="60.000000" viewBox="0 0 60 60" fill="none" xmlns="http://www.w3.org/2000/svg" xmlns:xlink="http://www.w3.org/1999/xlink">
	<desc>
			Created with Pixso.
	</desc>
	<defs>
		<clipPath id="clip101_565">
			<rect id="003-google-glass-logo" rx="0.000000" width="24.000000" height="24.000000" transform="translate(18.500000 18.500000)" fill="white" fill-opacity="0"/>
		</clipPath>
	</defs>
	<rect id="Rectangle 67" rx="20.000000" width="60.000000" height="60.000000" fill="#FFE0EB" fill-opacity="1.000000"/>
	<rect id="003-google-glass-logo" rx="0.000000" width="24.000000" height="24.000000" transform="translate(18.500000 18.500000)" fill="#FFFFFF" fill-opacity="0"/>
	<g clip-path="url(#clip101_565)">
		<path id="Vector" d="M32.06 29.25L32.06 32.37L39.43 32.37C38.68 36.75 35.18 39.87 30.81 39.87C25.68 39.87 21.43 35.62 21.43 30.5C21.43 25.37 25.68 21.12 30.81 21.12C33.43 21.12 35.68 22.25 37.31 24L39.56 21.75C37.31 19.5 34.31 18 30.81 18C23.93 18 18.31 23.62 18.31 30.5C18.31 37.37 23.93 43 30.81 43C37.68 43 42.68 37.37 42.68 30.5L42.68 29.25L32.06 29.25Z" fill="#FF82AC" fill-opacity="1.000000" fill-rule="nonzero"/>
	</g>
</svg>
