<svg width="60.000000" height="60.000000" viewBox="0 0 60 60" fill="none" xmlns="http://www.w3.org/2000/svg" xmlns:xlink="http://www.w3.org/1999/xlink">
	<desc>
			Created with Pixso.
	</desc>
	<defs>
		<clipPath id="clip101_552">
			<rect id="002-padlock" rx="0.000000" width="24.000000" height="24.000000" transform="translate(18.500000 18.500000)" fill="white" fill-opacity="0"/>
		</clipPath>
	</defs>
	<rect id="Rectangle 66" rx="20.000000" width="60.000000" height="60.000000" fill="#E7EDFF" fill-opacity="1.000000"/>
	<rect id="002-padlock" rx="0.000000" width="24.000000" height="24.000000" transform="translate(18.500000 18.500000)" fill="#FFFFFF" fill-opacity="0"/>
	<g clip-path="url(#clip101_552)">
		<path id="Vector" d="M37.53 27.17L35.77 27.17L35.77 23.16C35.77 20.31 33.4 18 30.49 18C27.59 18 25.22 20.31 25.22 23.16L25.22 27.17L23.46 27.17C21.85 27.17 20.53 28.49 20.53 30.1L20.53 40.07C20.53 41.68 21.85 43 23.46 43L37.53 43C39.14 43 40.46 41.68 40.46 40.07L40.46 30.1C40.46 28.49 39.14 27.17 37.53 27.17ZM27.17 23.16C27.17 21.39 28.66 19.95 30.49 19.95C32.32 19.95 33.81 21.39 33.81 23.16L33.81 27.17L27.17 27.17L27.17 23.16ZM38.5 40.07C38.5 40.6 38.06 41.04 37.53 41.04L23.46 41.04C22.93 41.04 22.49 40.6 22.49 40.07L22.49 30.1C22.49 29.57 22.93 29.13 23.46 29.13L37.53 29.13C38.06 29.13 38.5 29.57 38.5 30.1L38.5 40.07Z" fill="#396AFF" fill-opacity="1.000000" fill-rule="nonzero"/>
		<path id="Vector" d="M30.5 31.96C29.5 31.96 28.69 32.77 28.69 33.77C28.69 34.4 29.02 34.96 29.52 35.28L29.52 37.43C29.52 37.97 29.95 38.41 30.49 38.41C31.03 38.41 31.47 37.97 31.47 37.43L31.47 35.29C31.97 34.97 32.3 34.41 32.3 33.77C32.3 32.77 31.49 31.96 30.5 31.96Z" fill="#396AFF" fill-opacity="1.000000" fill-rule="nonzero"/>
	</g>
</svg>
