<svg width="60.000000" height="60.000000" viewBox="0 0 60 60" fill="none" xmlns="http://www.w3.org/2000/svg" xmlns:xlink="http://www.w3.org/1999/xlink">
	<desc>
			Created with Pixso.
	</desc>
	<defs>
		<clipPath id="clip101_575">
			<rect id="001-block-credit-card" rx="0.000000" width="24.000000" height="24.000000" transform="translate(18.500000 18.500000)" fill="white" fill-opacity="0"/>
		</clipPath>
	</defs>
	<rect id="Rectangle 65" rx="20.000000" width="60.000000" height="60.000000" fill="#FFF5D9" fill-opacity="1.000000"/>
	<rect id="001-block-credit-card" rx="0.000000" width="24.000000" height="24.000000" transform="translate(18.500000 18.500000)" fill="#FFFFFF" fill-opacity="0"/>
	<g clip-path="url(#clip101_575)">
		<path id="Vector" d="M41.62 29.54L41.62 22.13C41.62 20.6 40.39 19.37 38.86 19.37L20.76 19.37C19.23 19.37 18 20.6 18 22.13L18 33.38C18 34.9 19.23 36.14 20.76 36.14L27.92 36.14C28.87 39.31 31.82 41.62 35.29 41.62C39.54 41.62 43 38.17 43 33.92C43 32.3 42.49 30.79 41.62 29.54ZM30.91 27.59L19.7 27.59L19.7 25.18L39.92 25.18L39.92 27.77C38.63 26.8 37.03 26.22 35.29 26.22C33.67 26.22 32.16 26.73 30.91 27.59ZM20.76 21.07L38.86 21.07C39.45 21.07 39.92 21.54 39.92 22.13L39.92 23.48L19.7 23.48L19.7 22.13C19.7 21.54 20.17 21.07 20.76 21.07ZM20.76 34.44C20.17 34.44 19.7 33.97 19.7 33.38L19.7 29.29L29.14 29.29C28.17 30.58 27.59 32.18 27.59 33.92C27.59 34.1 27.6 34.27 27.61 34.44L20.76 34.44L20.76 34.44ZM35.29 39.92C31.98 39.92 29.29 37.23 29.29 33.92C29.29 30.61 31.98 27.92 35.29 27.92C38.6 27.92 41.29 30.61 41.29 33.92C41.29 37.23 38.6 39.92 35.29 39.92Z" fill="#FFBB38" fill-opacity="1.000000" fill-rule="nonzero"/>
		<path id="Vector" d="M31.18 31.7C30.71 31.7 30.33 32.08 30.33 32.55L30.33 35.29C30.33 35.76 30.71 36.14 31.18 36.14L39.4 36.14C39.87 36.14 40.25 35.76 40.25 35.29L40.25 32.55C40.25 32.08 39.87 31.7 39.4 31.7L31.18 31.7ZM38.55 34.44L32.03 34.44L32.03 33.4L38.55 33.4L38.55 34.44Z" fill="#FFBB38" fill-opacity="1.000000" fill-rule="nonzero"/>
	</g>
</svg>
